<?xml version="1.0" encoding="UTF-8"?><svg xmlns="http://www.w3.org/2000/svg" xmlns:xlink="http://www.w3.org/1999/xlink" contentScriptType="text/ecmascript" width="30" zoomAndPan="magnify" contentStyleType="text/css" viewBox="0 0 30 30.000001" height="30.000001" preserveAspectRatio="xMidYMid meet" version="1.0"><defs><clipPath id="clip-0"><path d="M 17 0 L 29.515625 0 L 29.515625 13 L 17 13 Z M 17 0 " clip-rule="nonzero"/></clipPath></defs><path fill="rgb(74.508667%, 9.799194%, 19.219971%)" d="M 19.5625 18.566406 L 10.949219 9.953125 L 18.335938 3.796875 L 25.71875 11.183594 Z M 19.5625 18.566406 " fill-opacity="1" fill-rule="nonzero"/><g clip-path="url(#clip-0)"><path fill="rgb(86.669922%, 18.03894%, 26.669312%)" d="M 28.179688 11.183594 C 26.820312 12.542969 24.617188 12.542969 23.257812 11.183594 L 18.335938 6.257812 C 16.972656 4.902344 16.972656 2.695312 18.335938 1.335938 C 19.691406 -0.0234375 21.898438 -0.0234375 23.257812 1.335938 L 28.179688 6.257812 C 29.539062 7.617188 29.539062 9.824219 28.179688 11.183594 Z M 28.179688 11.183594 " fill-opacity="1" fill-rule="nonzero"/></g><path fill="rgb(59.999084%, 66.668701%, 70.979309%)" d="M 11.972656 14.257812 C 11.972656 14.257812 0.488281 27.796875 1.105469 28.414062 C 1.71875 29.027344 15.257812 17.546875 15.257812 17.546875 Z M 11.972656 14.257812 " fill-opacity="1" fill-rule="nonzero"/><path fill="rgb(86.669922%, 18.03894%, 26.669312%)" d="M 20.792969 22.257812 C 19.4375 23.621094 17.230469 23.621094 15.871094 22.257812 L 7.257812 13.644531 C 5.898438 12.285156 5.898438 10.082031 7.257812 8.722656 C 8.617188 7.359375 10.820312 7.359375 12.179688 8.722656 L 20.792969 17.335938 C 22.152344 18.695312 22.152344 20.898438 20.792969 22.257812 Z M 20.792969 22.257812 " fill-opacity="1" fill-rule="nonzero"/></svg>